<svg xmlns="http://www.w3.org/2000/svg" width="110" height="110" viewBox="0 0 110 110"><defs><clipPath id="4gr5a"><path fill="#fff" d="M55 20c19.33 0 35 15.67 35 35S74.33 90 55 90 20 74.33 20 55s15.67-35 35-35z"/></clipPath></defs><g><g><g><path fill="none" stroke="#d2be94" stroke-miterlimit="20" stroke-width="2" d="M55 20c19.33 0 35 15.67 35 35S74.33 90 55 90 20 74.33 20 55s15.67-35 35-35z" clip-path="url(&quot;#4gr5a&quot;)"/></g><g><path fill="#d2be94" d="M45.372 33.356a1.37 1.37 0 0 1 1.897 0l21.343 20.713a1.275 1.275 0 0 1 0 1.841L47.268 76.623a1.37 1.37 0 0 1-1.897 0 1.274 1.274 0 0 1 0-1.84l20.394-19.794-20.394-19.792a1.275 1.275 0 0 1 0-1.841z"/></g></g></g></svg>